<svg id="Layer_1" data-name="Layer 1" xmlns="http://www.w3.org/2000/svg" viewBox="0 0 118 118"><defs><style>.cls-1{fill:#eeb644;}</style></defs><title>graphic-design</title><path class="cls-1" d="M59,30.46A22.82,22.82,0,0,0,47.58,73V75.2a4.69,4.69,0,0,0-.93,6.64,4.7,4.7,0,0,0-1,2.85,4.76,4.76,0,0,0,4.76,4.76H67.56a4.73,4.73,0,0,0,3.78-7.61,4.69,4.69,0,0,0-.93-6.64V73A22.82,22.82,0,0,0,59,30.46Zm8.56,55.18H50.44a1,1,0,0,1,0-1.9H67.56A1,1,0,0,1,67.56,85.64Zm0-5.71H50.44a1,1,0,0,1,0-1.9H67.56A1,1,0,0,1,67.56,79.93Zm0.08-9.71-1,.53v3.47H60.9V60.63a7.61,7.61,0,1,0-3.81,0V74.22H51.39V70.76l-1-.53A19,19,0,1,1,67.65,70.22ZM59,57.1a3.81,3.81,0,1,1,3.81-3.81A3.81,3.81,0,0,1,59,57.1Z"/><path class="cls-1" d="M116.62,70.79A77.15,77.15,0,0,0,110,52.52c4.44-15.19,2.47-29.27-6.38-38.12-7.88-7.88-20-10.52-34-7.45-1.37.3-2.74,0.66-4.11,1.06A77.14,77.14,0,0,0,47.2,1.39C31.66-2,18.3.9,9.6,9.6S-2,31.66,1.38,47.21A77.13,77.13,0,0,0,8,65.48c-4.52,15.4-2.37,29.37,6.38,38.12,5.74,5.74,13.7,8.7,23,8.7a51.56,51.56,0,0,0,11-1.25c1.37-.3,2.74-0.66,4.11-1.06a77.14,77.14,0,0,0,18.26,6.64A57.11,57.11,0,0,0,83,118c10.31,0,19.11-3.27,25.44-9.6C117.1,99.7,120,86.34,116.62,70.79ZM100.9,17.1c7.13,7.13,9.15,18.23,6.43,30.57A103.77,103.77,0,0,0,91.14,26.85,103.77,103.77,0,0,0,70.33,10.67C82.56,8,93.7,9.9,100.9,17.1ZM5.1,46.39C2,32.16,4.54,20,12.29,12.29c5.6-5.6,13.47-8.48,22.77-8.48A53.15,53.15,0,0,1,46.39,5.1,71.27,71.27,0,0,1,60.3,9.76,88,88,0,0,0,29.93,29.93a96.32,96.32,0,0,0-9.1,10.53A8.44,8.44,0,0,0,18.09,40a8.54,8.54,0,0,0-5.9,14.74c-0.9,1.88-1.72,3.74-2.43,5.6A71.24,71.24,0,0,1,5.1,46.39Zm17.75,2.14a4.76,4.76,0,1,1-4.76-4.76A4.76,4.76,0,0,1,22.85,48.54ZM17.1,100.9c-7-7-9.16-18.06-6.41-30.53A103.73,103.73,0,0,0,26.86,91.15a103.71,103.71,0,0,0,20.82,16.19C35.45,110,24.3,108.11,17.1,100.9ZM29.55,88.45A98.47,98.47,0,0,1,12.1,65.09a69.73,69.73,0,0,1,3.38-8.44,8.43,8.43,0,0,0,2.6.45,8.56,8.56,0,0,0,6-14.65,93,93,0,0,1,8.52-9.83c10-10,21.5-17,32.45-20.53A98.38,98.38,0,0,1,88.46,29.55a98.47,98.47,0,0,1,17.45,23.38A76.18,76.18,0,0,1,95.7,73a8.48,8.48,0,0,0-3.4-.71,8.55,8.55,0,0,0-7.14,13.27c-10,9.93-21.36,16.84-32.22,20.32A98.46,98.46,0,0,1,29.55,88.45Zm67.51-7.57a4.76,4.76,0,1,1-4.76-4.76A4.76,4.76,0,0,1,97.06,80.88Zm8.65,24.83C98,113.46,85.85,116,71.61,112.9a71.32,71.32,0,0,1-13.9-4.66,87.94,87.94,0,0,0,30.22-20,8.47,8.47,0,0,0,4.37,1.24,8.57,8.57,0,0,0,8.56-8.56,8.49,8.49,0,0,0-2.11-5.57,81.83,81.83,0,0,0,9.49-17.62,71.23,71.23,0,0,1,4.66,13.92C116,85.84,113.46,98,105.71,105.71Z"/></svg>