<svg id="Layer_1" data-name="Layer 1" xmlns="http://www.w3.org/2000/svg" viewBox="0 0 118 118"><defs><style>.cls-1{fill:#eeb644;}</style></defs><title>graphic-design</title><path class="cls-1" d="M112,97.37h0V40.66a7.32,7.32,0,0,0-7.32-7.32H95.81c0-.16-0.08-0.33-0.13-0.49l-1.57.49H86.44v-3L62.76,18.55l-31.2,11.7v3.1H23.13l-0.87-.27c0,0.09,0,.18-0.07.27H13.27A7.32,7.32,0,0,0,6,40.66V97.37H2.29v7.32A7.32,7.32,0,0,0,9.61,112h98.78a7.32,7.32,0,0,0,7.32-7.32V97.37H112ZM64.49,23.5L80,31.27,64.49,37.11V23.5Zm0,17.51,18.29-6.86v20L64.49,45V41ZM80,56.88L57.17,65.46V50.16l5.38-2ZM57.17,46.25V43.76l3.66-1.37v2.49Zm3.66-23.07v15.3l-5.38,2L38,31.75ZM35.22,34.47l18.29,9.15v4L35.22,54.48v-20ZM53.51,51.53V65.14L38,57.36Zm1.72,18.56,31.2-11.7V44.32h7.32a35.22,35.22,0,0,1-.38,5.18L97,50a39.15,39.15,0,0,0,.42-5.72h3.66V90H16.93V44.32H31.56V58.25ZM9.61,40.66A3.66,3.66,0,0,1,13.27,37h8c-0.11.56-.23,1.11-0.31,1.67l3.62,0.53c0.11-.74.25-1.47,0.41-2.21h6.53v3.66H13.27v53h91.46v-53H86.44V37H93c0.14,0.66.28,1.33,0.38,2L97,38.44c-0.07-.48-0.18-1-0.28-1.44h8a3.66,3.66,0,0,1,3.66,3.66V97.37H64.49V101h-11V97.37H9.61V40.66Zm102.44,64h0a3.66,3.66,0,0,1-3.66,3.66H9.61A3.66,3.66,0,0,1,6,104.68V101h43.9a3.66,3.66,0,0,0,3.66,3.66h11A3.66,3.66,0,0,0,68.15,101H112v3.66Z"/><path class="cls-1" d="M37.26,17.2L35,14.34a38.93,38.93,0,0,0-4.19,3.91l2.69,2.48A35.39,35.39,0,0,1,37.26,17.2Z"/><path class="cls-1" d="M46.21,12l-1.35-3.4A38.43,38.43,0,0,0,39.7,11.1l1.84,3.16A34.33,34.33,0,0,1,46.21,12Z"/><path class="cls-1" d="M30.23,24.81l-3-2.06a38.58,38.58,0,0,0-2.86,5l3.3,1.58A34.7,34.7,0,0,1,30.23,24.81Z"/><path class="cls-1" d="M93.55,27.52a38.42,38.42,0,0,0-2.89-5l-3,2.07a34.68,34.68,0,0,1,2.62,4.48Z"/><path class="cls-1" d="M24.24,44.39H20.59A38.93,38.93,0,0,0,21,50.12l3.62-.55A35.37,35.37,0,0,1,24.24,44.39Z"/><path class="cls-1" d="M84.4,20.59l2.67-2.5a38.41,38.41,0,0,0-4.22-3.89l-2.27,2.86A34.77,34.77,0,0,1,84.4,20.59Z"/><path class="cls-1" d="M78.1,11a38.2,38.2,0,0,0-5.18-2.48l-1.33,3.41a34.93,34.93,0,0,1,4.69,2.24Z"/><path class="cls-1" d="M67.43,6.83A38.43,38.43,0,0,0,61.75,6L61.49,9.65a34.76,34.76,0,0,1,5.14.75Z"/><path class="cls-1" d="M56.29,9.67L56,6a38.79,38.79,0,0,0-5.67.87l0.82,3.57A35,35,0,0,1,56.29,9.67Z"/><path class="cls-1" d="M83,74.34l-2.28-2.86a35,35,0,0,1-4.29,2.93l1.83,3.16A38.92,38.92,0,0,0,83,74.34Z"/><path class="cls-1" d="M73.07,80.07l-1.34-3.4a34.6,34.6,0,0,1-5,1.53l0.81,3.57A38.25,38.25,0,0,0,73.07,80.07Z"/><path class="cls-1" d="M90.75,65.95l-3-2.06a34.88,34.88,0,0,1-3.24,4.06l2.68,2.49A38.46,38.46,0,0,0,90.75,65.95Z"/><path class="cls-1" d="M95.72,55.63l-3.5-1.08a34.11,34.11,0,0,1-1.89,4.83L93.62,61A37.93,37.93,0,0,0,95.72,55.63Z"/><path class="cls-1" d="M51.3,78.22a34.49,34.49,0,0,1-5-1.52L45,80.1a38.31,38.31,0,0,0,5.49,1.68Z"/><path class="cls-1" d="M61.91,82.62L61.64,79a35.18,35.18,0,0,1-5.2,0l-0.27,3.65c0.93,0.07,1.87.1,2.83,0.1S60.95,82.7,61.91,82.62Z"/><path class="cls-1" d="M41.66,74.45a34.92,34.92,0,0,1-4.29-2.92l-2.28,2.86a38.71,38.71,0,0,0,4.74,3.23Z"/><path class="cls-1" d="M27.29,66a38.54,38.54,0,0,0,3.59,4.48L33.56,68a34.88,34.88,0,0,1-3.25-4.05Z"/><path class="cls-1" d="M25.8,54.63L22.3,55.71A38.32,38.32,0,0,0,24.41,61l3.29-1.59A34.46,34.46,0,0,1,25.8,54.63Z"/></svg>