<svg id="Layer_1" data-name="Layer 1" xmlns="http://www.w3.org/2000/svg" viewBox="0 0 118 118"><defs><style>.cls-1{fill:#eeb644;}</style></defs><title>graphic-design</title><path class="cls-1" d="M116,52.51a1.9,1.9,0,0,0-1.12-1.73l-29-13a30.1,30.1,0,0,0,4.28-7.31c1.55-3.38,3-6.58,6.32-8.56a1.9,1.9,0,0,0,.65-2.6,1.92,1.92,0,0,0-.3-0.38c-0.12-.12-12.12-11.62-26-4a17.3,17.3,0,0,0-8.6,12.28l-2.44-1.1a1.9,1.9,0,0,0-1.55,0l-4.44,2a16.86,16.86,0,0,0-6.62-6.62c-13.89-7.59-25.88,3.92-26,4a1.9,1.9,0,0,0,0,2.69,1.86,1.86,0,0,0,.38.3c3.3,2,4.77,5.18,6.32,8.56,0.33,0.72.68,1.46,1,2.2L3.17,50.78a1.9,1.9,0,0,0,0,3.47l11,4.91-11,4.91a1.9,1.9,0,0,0,0,3.47l11,4.91-11,4.91a1.9,1.9,0,0,0,0,3.47l55.05,24.68a1.89,1.89,0,0,0,1.55,0l55.05-24.68a1.9,1.9,0,0,0,0-3.47l-11-4.91,11-4.91a1.9,1.9,0,0,0,0-3.47l-11-4.91,11-4.91A1.9,1.9,0,0,0,116,52.51ZM72.65,18.24c8.68-4.75,16.4-.5,19.75,2a23.86,23.86,0,0,0-5.69,8.7c-1.63,3.55-3.16,6.9-6.82,9.05a8.47,8.47,0,0,1-6.9.33,13.09,13.09,0,0,1-2-.89A53.07,53.07,0,0,1,81.59,24L79,21.18A56.89,56.89,0,0,0,67.92,35.12a7.45,7.45,0,0,1-1.6-2.32C64.79,29,66.46,21.63,72.65,18.24Zm-47,8.54c3.37-2.44,11.14-6.68,19.74-2,6.19,3.39,7.86,10.76,6.33,14.56a7.42,7.42,0,0,1-1.59,2.3A56.83,56.83,0,0,0,39,27.75l-2.56,2.8A53.1,53.1,0,0,1,47,44a13.31,13.31,0,0,1-2,.89,8.48,8.48,0,0,1-6.91-.33c-3.65-2.15-5.19-5.51-6.82-9.05a23.89,23.89,0,0,0-5.69-8.69h0Zm83.8,52.31L59,101.68,8.59,79.09l10.18-4.56L58.22,92.22a1.89,1.89,0,0,0,1.55,0L99.23,74.54Zm0-13.29L59,88.39,8.59,65.8l10.18-4.56L58.22,78.93a1.89,1.89,0,0,0,1.55,0L99.23,61.25ZM59,75.11L8.59,52.51l22.18-9.94a16.48,16.48,0,0,0,5.42,5.22,10.76,10.76,0,0,0,5.49,1.44,14.2,14.2,0,0,0,4.56-.79,16.82,16.82,0,0,0,2.52-1.12,53.15,53.15,0,0,1,3.15,8.46l3.66-1a56.86,56.86,0,0,0-3.65-9.63,12,12,0,0,0,3.28-4.36,14.12,14.12,0,0,0,.07-9.2L59,29.92l3.09,1.39a11.22,11.22,0,0,0,.7,2.91,12,12,0,0,0,3.3,4.38,56.84,56.84,0,0,0-5,16L60.84,56l3.75,0.57,0.21-1.38a53,53,0,0,1,4.46-14.45,16.55,16.55,0,0,0,2.5,1.11,14.09,14.09,0,0,0,4.56.79,10.75,10.75,0,0,0,5.49-1.44c0.35-.21.65-0.43,1-0.65l26.63,11.94Z"/></svg>