<?xml version="1.0" encoding="utf-8"?>
<!-- Generator: Adobe Illustrator 19.2.1, SVG Export Plug-In . SVG Version: 6.00 Build 0)  -->
<svg version="1.1" id="Слой_1" xmlns="http://www.w3.org/2000/svg" xmlns:xlink="http://www.w3.org/1999/xlink" x="0px" y="0px"
	 viewBox="0 0 17 17" style="enable-background:new 0 0 17 17;" xml:space="preserve">
<style type="text/css">
	.st0{fill:#FFFFFF;}
</style>
<path class="st0" d="M17,2.6v1.3h-2.6v2.6h-1.3V3.9h-2.6V2.6h2.6V0h1.3v2.6C14.4,2.6,17,2.6,17,2.6z M10.4,12.8
	c0,1.2-0.6,2.1-1.4,2.9c-1.2,1-2.8,1.3-4.3,1.3C2.8,17,0,16.2,0,13.8c0-0.5,0.2-1,0.4-1.4c0.9-1.8,3.7-2.3,5.6-2.4
	C5.6,9.6,5.3,9.1,5.3,8.6c0-0.3,0.1-0.6,0.2-0.9C5.3,7.7,5,7.7,4.8,7.7c-2,0-3.7-1.5-3.7-3.5c0-1.9,1.5-3.6,3.4-4
	C5.1,0.1,5.7,0,6.4,0h4.5L9.5,0.8H8.1c1,0.6,1.5,1.9,1.5,3c0,2.7-2.3,2.9-2.3,4.3C7.3,9.4,10.4,9.9,10.4,12.8z M7.7,4.9
	c0-1.6-0.8-4.1-2.7-4.1c-1.3,0-2,1.2-2,2.4c0,1.6,1,4,2.8,4C7.2,7.1,7.7,6.1,7.7,4.9z M8.9,13.7c0-1.4-1.3-2.2-2.4-3
	c-0.2,0-0.3,0-0.5,0c-1.7,0-4.2,0.5-4.2,2.7c0,2,2.2,2.7,3.8,2.7C7.3,16.1,8.9,15.4,8.9,13.7z"/>
</svg>
