<?xml version="1.0" encoding="utf-8"?>
<!-- Generator: Adobe Illustrator 19.2.1, SVG Export Plug-In . SVG Version: 6.00 Build 0)  -->
<svg version="1.1" id="Слой_1" xmlns="http://www.w3.org/2000/svg" xmlns:xlink="http://www.w3.org/1999/xlink" x="0px" y="0px"
	 viewBox="0 0 17 17" style="enable-background:new 0 0 17 17;" xml:space="preserve">
<style type="text/css">
	.st0{fill:#FFFFFF;}
</style>
<path class="st0" d="M13,0H4C1.8,0,0,1.8,0,4v9c0,2.2,1.8,4,4,4h9c2.2,0,4-1.8,4-4V4C17,1.8,15.2,0,13,0z M16,13c0,1.7-1.3,3-3,3H4
	c-1.7,0-3-1.3-3-3V7h3.2C3.9,7.6,3.7,8.3,3.7,9c0,2.6,2.1,4.8,4.8,4.8s4.8-2.1,4.8-4.8c0-0.7-0.2-1.4-0.5-2H16V13z M12.3,9
	c0,2.1-1.7,3.8-3.8,3.8S4.8,11.1,4.8,9s1.7-3.8,3.8-3.8S12.3,6.9,12.3,9z M12.2,6C11.3,4.9,10,4.2,8.5,4.2S5.7,4.9,4.8,6H1V4
	c0-1.7,1.3-3,3-3h9c1.7,0,3,1.3,3,3v2H12.2z M14.5,2.7V4c0,0.3-0.2,0.5-0.5,0.5h-1.4C12.2,4.6,12,4.3,12,4V2.7
	c0-0.3,0.2-0.5,0.5-0.5h1.4C14.2,2.2,14.5,2.4,14.5,2.7z"/>
</svg>
