<?xml version="1.0" encoding="utf-8"?>
<!-- Generator: Adobe Illustrator 19.2.1, SVG Export Plug-In . SVG Version: 6.00 Build 0)  -->
<svg version="1.1" id="Слой_1" xmlns="http://www.w3.org/2000/svg" xmlns:xlink="http://www.w3.org/1999/xlink" x="0px" y="0px"
	 viewBox="0 0 17 17" style="enable-background:new 0 0 17 17;" xml:space="preserve">
<style type="text/css">
	.st0{fill:#FFFFFF;}
</style>
<path class="st0" d="M17,3.2c-0.6,0.3-1.3,0.5-2,0.5c0.7-0.4,1.3-1.1,1.5-1.9c-0.7,0.4-1.4,0.7-2.2,0.8c-0.6-0.7-1.5-1.1-2.5-1.1
	c-1.9,0-3.5,1.6-3.5,3.5c0,0.3,0,0.5,0.1,0.8C5.5,5.7,2.9,4.3,1.2,2.2C0.9,2.7,0.7,3.3,0.7,4c0,1.2,0.6,2.3,1.6,2.9
	c-0.6,0-1.1-0.2-1.6-0.4c0,0,0,0,0,0c0,1.7,1.2,3.1,2.8,3.4C3.2,10,2.9,10,2.6,10c-0.2,0-0.4,0-0.7-0.1c0.4,1.4,1.7,2.4,3.3,2.4
	c-1.2,0.9-2.7,1.5-4.3,1.5c-0.3,0-0.6,0-0.8,0c1.5,1,3.4,1.6,5.4,1.6c6.4,0,9.9-5.3,9.9-9.9c0-0.2,0-0.3,0-0.5
	C15.9,4.5,16.5,3.9,17,3.2z M14.3,5.5c0,3.7-2.8,8.9-8.9,8.9c-0.5,0-1,0-1.5-0.1c0.7-0.3,1.3-0.6,1.9-1.1c0.3-0.3,0.5-0.7,0.3-1.1
	c-0.1-0.4-0.5-0.7-0.9-0.7c-0.5,0-1.1-0.2-1.5-0.5c0,0,0,0,0,0c0.5-0.1,0.8-0.5,0.8-1c0-0.5-0.3-0.9-0.8-1C3,8.8,2.5,8.4,2.1,7.9
	c0,0,0.1,0,0.1,0c0,0,0,0,0,0c0.4,0,0.8-0.3,1-0.7c0.1-0.4,0-0.9-0.4-1.1C2.2,5.6,1.8,5,1.7,4.2c1.8,1.6,4.1,2.5,6.6,2.7
	c0,0,0,0,0.1,0c0.3,0,0.6-0.1,0.8-0.3C9.3,6.3,9.4,6,9.3,5.7c0-0.2-0.1-0.4-0.1-0.6c0-1.4,1.1-2.5,2.5-2.5c0.7,0,1.3,0.3,1.8,0.8
	c0.1,0.1,0.3,0.2,0.4,0.3c0,0.1,0,0.3,0,0.4c0.1,0.2,0.2,0.4,0.3,0.5c-0.1,0.2-0.1,0.4-0.1,0.5C14.3,5.2,14.3,5.4,14.3,5.5z"/>
</svg>
